<?xml version="1.0" standalone="no"?><!DOCTYPE svg PUBLIC "-//W3C//DTD SVG 1.1//EN" "http://www.w3.org/Graphics/SVG/1.1/DTD/svg11.dtd"><svg t="1725290887185" class="icon" viewBox="0 0 1024 1024" version="1.1" xmlns="http://www.w3.org/2000/svg" p-id="8538" xmlns:xlink="http://www.w3.org/1999/xlink" width="200" height="200"><path d="M365.913 400.521V98.453H151.061c-14.269 0.159-25.759 11.761-25.774 26.03v770.161l240.626-135.88V467.286l-54.34 18.132a31.698 31.698 0 0 1-31.064-6.367 31.711 31.711 0 0 1-10.02-30.085 31.727 31.727 0 0 1 21.051-23.722l74.373-24.789v0.066zM555.18 422.932V98.486H429.318v697.338L190.054 930.91h604.354L555.18 795.824V422.932z m63.407-22.128l73.42 24.473c16.621 5.535 25.6 23.489 20.07 40.105-5.534 16.619-23.488 25.604-40.103 20.07l-53.387-17.818v291.161L870.304 900.95V124.515a25.801 25.801 0 0 0-7.489-18.383 25.816 25.816 0 0 0-18.314-7.646H618.587v302.318zM933.71 930.91h57.226c17.513 0 31.705 14.194 31.705 31.701 0 17.513-14.192 31.706-31.705 31.706H31.697c-17.507 0-31.701-14.194-31.701-31.706 0-17.507 14.194-31.701 31.701-31.701h30.182V124.515c0.017-49.289 39.897-89.279 89.181-89.436h693.442a89.24 89.24 0 0 1 63.13 26.231 89.241 89.241 0 0 1 26.051 63.205V930.91h0.027z m0 0" fill="#333333" p-id="8539"></path></svg>