<?xml version="1.0" standalone="no"?><!DOCTYPE svg PUBLIC "-//W3C//DTD SVG 1.1//EN" "http://www.w3.org/Graphics/SVG/1.1/DTD/svg11.dtd"><svg t="1725290015948" class="icon" viewBox="0 0 1024 1024" version="1.1" xmlns="http://www.w3.org/2000/svg" p-id="3403" xmlns:xlink="http://www.w3.org/1999/xlink" width="200" height="200"><path d="M896 512c0 212.074667-171.925333 384-384 384S128 724.074667 128 512 299.925333 128 512 128s384 171.925333 384 384zM512 853.333333c188.522667 0 341.333333-152.810667 341.333333-341.333333S700.522667 170.666667 512 170.666667 170.666667 323.477333 170.666667 512s152.810667 341.333333 341.333333 341.333333z" fill="#000000" p-id="3404"></path><path d="M277.333333 512a21.333333 21.333333 0 0 1 21.333334-21.333333h423.104a21.333333 21.333333 0 1 1 0 42.666666H298.666667a21.333333 21.333333 0 0 1-21.333334-21.333333z" fill="#000000" p-id="3405"></path><path d="M510.229333 744.896a21.333333 21.333333 0 0 1-21.333333-21.333333V300.437333a21.333333 21.333333 0 0 1 42.666667 0v423.125334a21.333333 21.333333 0 0 1-21.333334 21.333333z" fill="#000000" p-id="3406"></path></svg>