<?xml version="1.0" standalone="no"?><!DOCTYPE svg PUBLIC "-//W3C//DTD SVG 1.1//EN" "http://www.w3.org/Graphics/SVG/1.1/DTD/svg11.dtd"><svg t="1725290749906" class="icon" viewBox="0 0 1024 1024" version="1.1" xmlns="http://www.w3.org/2000/svg" p-id="5508" xmlns:xlink="http://www.w3.org/1999/xlink" width="200" height="200"><path d="M504.389054 1024.718907c-68.065561 0-134.095226-13.32998-196.260516-39.627465-60.03777-25.393314-113.949729-61.74039-160.248729-108.03939-46.287924-46.293965-82.636007-100.210959-108.029321-160.248729-26.291444-62.16529-39.621424-128.189921-39.621424-196.237358S13.559043 386.503965 39.851494 324.343709c25.393314-60.031728 61.741397-113.943688 108.034356-160.237653 46.293965-46.292958 100.204918-82.641041 160.242688-108.033349C370.293828 29.775222 436.329534 16.445242 504.389054 16.445242c68.04643 0 134.071061 13.330987 196.231317 39.627465 60.031728 25.393314 113.943688 61.74039 160.237653 108.033349 46.287924 46.293965 82.635 100.205925 108.02328 160.237653 26.291444 62.160256 39.622431 128.173811 39.622431 196.221248s-13.32998 134.072068-39.622431 196.237358C943.493024 776.840085 907.144941 830.758086 860.857017 877.052052c-46.293965 46.297993-100.204918 82.646076-160.237653 108.03939C638.461122 1011.388927 572.435484 1024.718907 504.389054 1024.718907L504.389054 1024.718907zM504.389054 50.317426c-259.319909 0-470.287806 210.951787-470.287806 470.247531 0 259.313868 210.967897 470.281765 470.287806 470.281765 259.289703 0 470.24149-210.967897 470.24149-470.281765C974.630544 261.269213 763.678757 50.317426 504.389054 50.317426L504.389054 50.317426zM504.389054 50.317426" fill="#2199EB" p-id="5509"></path><path d="M675.61873 704.547675l-52.782249 0L622.836481 513.959877c0-36.016822-5.027312-61.778651-15.078917-77.287502-10.055632-15.50281-26.573368-23.259752-49.551197-23.259752-19.389336 0-35.994671 10.105975-49.817011 30.310878-13.825361 20.215978-20.734517 44.121135-20.734517 71.73561l0 189.081518-52.781242 0L434.873597 507.956905c0-63.0312-21.80885-94.543276-65.433597-94.543276-20.107236 0-36.754859 9.603546-49.953945 28.816679-13.194052 19.207092-19.791078 43.718387-19.791078 73.532876l0 188.784491L246.916755 704.547675 246.916755 372.594027l52.777215 0 0 52.523483 1.073326 0c21.18761-40.217492 52.152954-60.324728 92.906102-60.324728 19.931033 0 37.516054 6.103659 52.782249 18.308962 15.254112 12.20631 25.850434 28.711965 31.772856 49.518977 22.084733-45.218626 55.113158-67.827939 99.096352-67.827939 65.52925 0 98.292868 45.019265 98.292868 135.058803L675.617723 704.547675 675.61873 704.547675zM675.61873 704.547675" fill="#2199EB" p-id="5510"></path><path d="M792.097722 404.492742l-42.13659 0 18.088457-17.680674c11.804568-11.692806 19.644075-21.143307 23.992755-28.91636 4.50978-8.060011 6.7984-16.440208 6.7984-24.908002 0-11.560905-3.793894-20.966098-11.279988-27.956811-7.376345-6.891033-17.377606-10.380851-29.725885-10.380851-13.914972 0-26.314602 4.112066-36.844471 12.228462-1.389483 1.069298-2.200016 2.717548-2.200016 4.470512l0 15.60249c0 2.249352 1.334106 4.283234 3.39618 5.182371 0.727969 0.30911 1.489164 0.463161 2.249352 0.463161 1.405593 0 2.790043-0.52458 3.858334-1.522391 8.821206-8.258365 17.69175-12.276791 27.108018-12.276791 5.783473 0 10.122085 1.334106 12.883935 3.96909 2.72963 2.596723 4.05266 6.456064 4.05266 11.792486 0 5.093766-1.367332 9.922725-4.174492 14.763766-3.032699 5.220632-9.300478 12.603018-18.634182 21.930681l-35.277778 35.200249c-1.059229 1.058223-1.659325 2.497043-1.659325 3.997282l0 13.330987c0 3.115262 2.531276 5.645532 5.645532 5.645532l73.858096 0c3.115262 0 5.645532-2.53027 5.645532-5.645532l0-13.645131C797.74426 407.023012 795.212984 404.492742 792.097722 404.492742L792.097722 404.492742zM792.097722 404.492742" fill="#2199EB" p-id="5511"></path></svg>