<?xml version="1.0" standalone="no"?><!DOCTYPE svg PUBLIC "-//W3C//DTD SVG 1.1//EN" "http://www.w3.org/Graphics/SVG/1.1/DTD/svg11.dtd"><svg t="1725290856023" class="icon" viewBox="0 0 1024 1024" version="1.1" xmlns="http://www.w3.org/2000/svg" p-id="7553" xmlns:xlink="http://www.w3.org/1999/xlink" width="200" height="200"><path d="M640 810.666667a128 128 0 1 0-256 0 128 128 0 0 0 256 0z m-170.666667 0a42.666667 42.666667 0 1 1 85.333334 0 42.666667 42.666667 0 0 1-85.333334 0zM1002.752 271.786667a42.666667 42.666667 0 1 1-65.408 54.869333A553.301333 553.301333 0 0 0 512 128C346.368 128 192.682667 200.96 87.893333 325.162667A42.666667 42.666667 0 0 1 22.613333 270.122667 638.592 638.592 0 0 1 512 42.666667c191.829333 0 369.92 84.949333 490.752 229.12z m-159.402667 139.136a42.666667 42.666667 0 0 1-65.365333 54.826666A346.496 346.496 0 0 0 511.573333 341.333333a346.453333 346.453333 0 0 0-265.642666 123.477334 42.666667 42.666667 0 0 1-65.194667-55.04A431.786667 431.786667 0 0 1 511.573333 256a431.786667 431.786667 0 0 1 331.776 154.922667z m-128 153.472a42.666667 42.666667 0 0 1-65.365333 54.826666A179.712 179.712 0 0 0 511.744 554.666667a179.712 179.712 0 0 0-137.813333 64.085333 42.666667 42.666667 0 0 1-65.194667-55.04A265.045333 265.045333 0 0 1 511.744 469.333333c79.573333 0 153.514667 35.285333 203.605333 95.061334z" fill="#3D3D3D" p-id="7554"></path></svg>